# xmcd CD database file
#
# Track frame offsets:
#	150
#	12864
#	24551
#	36183
#	51873
#	60202
#	74859
#	86709
#	97048
#	108884
#	120403
#	132274
#	142735
#	149234
#	161501
#	172261
#	180563
#	191112
#
# Disc length: 2682 seconds
#
# Revision: 1
# Processed by: cddbd v1.5.1PL0 Copyright (c) Steve Scherf et al.
# Submitted via: CDex 1.51
#
DISCID=040a7812
DTITLE=KTO - BEST OF KTO
DYEAR=1996
DGENRE=Country
TTITLE0=Placek v udoli
TTITLE1=Marinak
TTITLE2=Sejdy lejdy
TTITLE3=Nad vodou svita
TTITLE4=Posazavskej Dan
TTITLE5=Danny Boy
TTITLE6=Loudavej vlak
TTITLE7=Tecka
TTITLE8=Prokletej bar
TTITLE9=Zradny banjo
TTITLE10=Vzpominka na Rocky Top
TTITLE11=U ti louzi
TTITLE12=Kvete mak a slunce pali
TTITLE13=Dej si rict
TTITLE14=Den jde spat
TTITLE15=Ma co chtela
TTITLE16=Leta padi
TTITLE17=Cestou k Wabash Cannonball
EXTD=YEAR: 1996
EXTT0=
EXTT1=
EXTT2=
EXTT3=
EXTT4=
EXTT5=
EXTT6=
EXTT7=
EXTT8=
EXTT9=
EXTT10=
EXTT11=
EXTT12=
EXTT13=
EXTT14=
EXTT15=
EXTT16=
EXTT17=
PLAYORDER=
